<?xml version="1.0" encoding="UTF-8"?>
<svg id="Camada_2" data-name="Camada 2" xmlns="http://www.w3.org/2000/svg" viewBox="0 0 100 100">
  <defs>
    <style>
      .cls-1 {
        fill: #fff;
      }

      .cls-1, .cls-2 {
        stroke-width: 0px;
      }

      .cls-2 {
        fill: #1d1d1b;
      }
    </style>
  </defs>
  <g id="Camada_1-2" data-name="Camada 1">
    <g>
      <circle class="cls-2" cx="50" cy="50" r="50"/>
      <g>
        <path class="cls-1" d="m48.75,69.72c-10.94,0-17.29-7.44-17.29-17.19,0-3.3.66-6.39,1.99-9.23-9.55,7.1-15.74,18.48-15.74,31.26,0,2.15.18,4.28.54,6.33,6.41,6.47,14.8,9.73,25.03,9.73s18.05-1.63,24.83-4.91l3.28-21.01c-7.22,3.38-14.76,5.03-22.64,5.03Z"/>
        <path class="cls-1" d="m59.88,12c-13.47-.08-25.1,4.45-34.78,13.68-9.57,9.14-14.45,20.05-14.52,32.74-.04,6.19,1.1,11.77,3.46,16.68,1.34-20.94,17.04-37.96,37.32-41.38,2.29-.56,4.76-.85,7.41-.83,3.22.02,6.36.4,9.38,1.17.24.04.46.1.66.16,3.2.85,6.31,2.11,9.29,3.82l.08-.56,3.33-20.22c-5.99-3.42-13.2-5.21-21.62-5.26Z"/>
      </g>
    </g>
  </g>
</svg>