<svg width="60" height="60" viewBox="0 0 60 60" fill="none" xmlns="http://www.w3.org/2000/svg">
<circle cx="30" cy="30" r="29.2683" fill="#F2F2F2" stroke="black" stroke-width="1.46341"/>
<path d="M38.0489 21.9512H38.0635M22.683 15.3659H37.3172C41.3583 15.3659 44.6343 18.6418 44.6343 22.6829V37.3171C44.6343 41.3582 41.3583 44.6341 37.3172 44.6341H22.683C18.6419 44.6341 15.366 41.3582 15.366 37.3171V22.6829C15.366 18.6418 18.6419 15.3659 22.683 15.3659ZM35.8538 29.078C36.0344 30.296 35.8263 31.5398 35.2593 32.6327C34.6922 33.7256 33.795 34.6118 32.6952 35.1654C31.5954 35.7189 30.3491 35.9116 29.1335 35.716C27.9179 35.5204 26.7949 34.9465 25.9243 34.0758C25.0537 33.2052 24.4797 32.0823 24.2841 30.8667C24.0885 29.6511 24.2812 28.4047 24.8347 27.3049C25.3883 26.2052 26.2745 25.3079 27.3674 24.7408C28.4603 24.1738 29.7041 23.9657 30.9221 24.1463C32.1644 24.3306 33.3145 24.9095 34.2026 25.7975C35.0907 26.6856 35.6696 27.8357 35.8538 29.078Z" stroke="black" stroke-width="2.92683" stroke-linecap="round" stroke-linejoin="round"/>
</svg>
