<svg width="60" height="60" viewBox="0 0 60 60" fill="none" xmlns="http://www.w3.org/2000/svg">
<circle cx="30" cy="30" r="30" fill="#1D1D1B"/>
<path d="M38.0486 21.9512H38.0633M22.6828 15.3658H37.3169C41.358 15.3658 44.634 18.6418 44.634 22.6829V37.3171C44.634 41.3582 41.358 44.6341 37.3169 44.6341H22.6828C18.6417 44.6341 15.3657 41.3582 15.3657 37.3171V22.6829C15.3657 18.6418 18.6417 15.3658 22.6828 15.3658ZM35.8535 29.078C36.0341 30.296 35.8261 31.5398 35.259 32.6327C34.692 33.7256 33.7947 34.6118 32.6949 35.1654C31.5951 35.7189 30.3488 35.9116 29.1332 35.716C27.9176 35.5204 26.7946 34.9465 25.924 34.0758C25.0534 33.2052 24.4795 32.0822 24.2839 30.8666C24.0883 29.651 24.2809 28.4047 24.8345 27.3049C25.388 26.2051 26.2743 25.3079 27.3672 24.7408C28.46 24.1738 29.7039 23.9657 30.9218 24.1463C32.1641 24.3306 33.3143 24.9094 34.2023 25.7975C35.0904 26.6856 35.6693 27.8357 35.8535 29.078Z" stroke="#F2F2F2" stroke-width="4" stroke-linecap="round" stroke-linejoin="round"/>
</svg>
