<svg width="60" height="60" viewBox="0 0 60 60" fill="none" xmlns="http://www.w3.org/2000/svg">
<circle cx="30" cy="30" r="30" fill="#1D1D1B"/>
<path d="M35.8536 24.1463C38.1824 24.1463 40.4157 25.0714 42.0624 26.7181C43.7091 28.3647 44.6341 30.5981 44.6341 32.9268V43.1707H38.7805V32.9268C38.7805 32.1506 38.4721 31.4061 37.9232 30.8572C37.3743 30.3084 36.6299 30 35.8536 30C35.0774 30 34.333 30.3084 33.7841 30.8572C33.2352 31.4061 32.9268 32.1506 32.9268 32.9268V43.1707H27.0732V32.9268C27.0732 30.5981 27.9982 28.3647 29.6449 26.7181C31.2916 25.0714 33.5249 24.1463 35.8536 24.1463Z" fill="#F2F2F2"/>
<path d="M21.2195 25.6097H15.3658V43.1707H21.2195V25.6097Z" fill="#F2F2F2"/>
<path d="M18.2927 21.2195C19.9091 21.2195 21.2195 19.9091 21.2195 18.2927C21.2195 16.6762 19.9091 15.3658 18.2927 15.3658C16.6762 15.3658 15.3658 16.6762 15.3658 18.2927C15.3658 19.9091 16.6762 21.2195 18.2927 21.2195Z" fill="#F2F2F2"/>
</svg>
