<svg width="60" height="60" viewBox="0 0 60 60" fill="none" xmlns="http://www.w3.org/2000/svg">
<circle cx="30" cy="30" r="29.2624" fill="#F2F2F2" stroke="black" stroke-width="1.47518"/>
<path d="M35.8535 24.1463C38.1823 24.1463 40.4156 25.0714 42.0623 26.7181C43.7089 28.3647 44.634 30.5981 44.634 32.9268V43.1707H38.7804V32.9268C38.7804 32.1506 38.472 31.4061 37.9231 30.8572C37.3742 30.3084 36.6298 30 35.8535 30C35.0773 30 34.3328 30.3084 33.7839 30.8572C33.2351 31.4061 32.9267 32.1506 32.9267 32.9268V43.1707H27.073V32.9268C27.073 30.5981 27.9981 28.3647 29.6448 26.7181C31.2914 25.0714 33.5248 24.1463 35.8535 24.1463Z" stroke="black" stroke-width="2.95035" stroke-linecap="round" stroke-linejoin="round"/>
<path d="M21.2194 25.6098H15.3657V43.1707H21.2194V25.6098Z" stroke="black" stroke-width="2.95035" stroke-linecap="round" stroke-linejoin="round"/>
<path d="M18.2926 21.2195C19.909 21.2195 21.2194 19.9091 21.2194 18.2927C21.2194 16.6762 19.909 15.3659 18.2926 15.3659C16.6761 15.3659 15.3657 16.6762 15.3657 18.2927C15.3657 19.9091 16.6761 21.2195 18.2926 21.2195Z" stroke="black" stroke-width="2.95035" stroke-linecap="round" stroke-linejoin="round"/>
</svg>
