<svg width="60" height="60" viewBox="0 0 60 60" fill="none" xmlns="http://www.w3.org/2000/svg">
<circle cx="30" cy="30" r="30" fill="#1D1D1B"/>
<path fill-rule="evenodd" clip-rule="evenodd" d="M30.3659 11.3986C20.3128 11.3986 12.1304 19.581 12.1304 29.6341C12.1226 33.1398 13.1365 36.5746 15.0465 39.5143L12.2798 45.6138C11.9182 46.4155 12.264 47.3588 13.0658 47.7203C13.2701 47.8146 13.4981 47.8618 13.726 47.8618C13.8675 47.8618 14.009 47.8461 14.1505 47.8068L21.7827 45.716C24.4237 47.1308 27.3712 47.8697 30.3659 47.8697C40.4191 47.8697 48.6015 39.6873 48.6015 29.6341C48.6015 19.581 40.4191 11.3986 30.3659 11.3986ZM30.3659 44.6863C27.7013 44.6863 25.0918 43.9789 22.7888 42.6348C22.4193 42.4226 21.9792 42.3597 21.5626 42.4776L16.5793 43.8453L18.3163 40.0174C18.5521 39.4986 18.4893 38.8934 18.1591 38.4296C16.3041 35.8672 15.3138 32.7939 15.3138 29.6341C15.3138 21.3338 22.0656 14.5898 30.3659 14.5898C38.6662 14.5898 45.4181 21.3338 45.4181 29.6341C45.4181 37.9344 38.6662 44.6863 30.3659 44.6863Z" fill="#F2F2F2"/>
<path fill-rule="evenodd" clip-rule="evenodd" d="M37.3773 32.3616C36.6148 31.9057 35.6166 31.3948 34.7206 31.7643C34.0289 32.0472 33.5887 33.1241 33.1407 33.6743C32.9127 33.9572 32.6376 34.0044 32.2839 33.8629C29.6901 32.8332 27.7093 31.104 26.2788 28.7224C26.0351 28.353 26.0823 28.0621 26.3731 27.7163C26.8054 27.2054 27.3477 26.6316 27.4656 25.9478C27.5835 25.2639 27.2613 24.4622 26.9783 23.8491C26.6167 23.0709 26.208 21.9548 25.4299 21.5146C24.7146 21.1059 23.7635 21.3339 23.1268 21.8605C22.0264 22.7565 21.4919 24.1635 21.5077 25.5626C21.5155 25.9635 21.5627 26.3565 21.657 26.7416C21.8771 27.6613 22.3015 28.5259 22.781 29.3433C23.1426 29.9564 23.5356 30.5538 23.96 31.1354C25.3434 33.0297 27.0726 34.6411 29.0691 35.8751C30.0674 36.4961 31.1363 37.007 32.2525 37.3921C33.5022 37.8008 34.6105 38.2331 35.9625 37.9816C37.3694 37.7144 38.7607 36.8419 39.3266 35.4821C39.4917 35.0812 39.5781 34.6332 39.4838 34.2088C39.2794 33.3127 38.0847 32.7861 37.3773 32.3616Z" fill="#F2F2F2"/>
</svg>
