<svg width="60" height="60" viewBox="0 0 60 60" fill="none" xmlns="http://www.w3.org/2000/svg">
<path d="M59.2683 30C59.2683 46.1644 46.1644 59.2683 30 59.2683C13.8356 59.2683 0.731707 46.1644 0.731707 30C0.731707 13.8356 13.8356 0.731707 30 0.731707C46.1644 0.731707 59.2683 13.8356 59.2683 30Z" fill="#F2F2F2" stroke="black" stroke-width="1.46341"/>
<path fill-rule="evenodd" clip-rule="evenodd" d="M30.3659 11.3986C20.3128 11.3986 12.1304 19.581 12.1304 29.6341C12.1226 33.1398 13.1365 36.5746 15.0465 39.5143L12.2798 45.6138C11.9182 46.4155 12.264 47.3588 13.0658 47.7203C13.2701 47.8146 13.4981 47.8618 13.726 47.8618C13.8675 47.8618 14.009 47.8461 14.1505 47.8068L21.7827 45.716C24.4237 47.1308 27.3712 47.8697 30.3659 47.8697C40.4191 47.8697 48.6015 39.6873 48.6015 29.6341C48.6015 19.581 40.4191 11.3986 30.3659 11.3986ZM30.3659 44.6863C27.7013 44.6863 25.0918 43.9789 22.7888 42.6348C22.4193 42.4226 21.9792 42.3597 21.5626 42.4776L16.5793 43.8453L18.3163 40.0174C18.5521 39.4986 18.4893 38.8934 18.1591 38.4296C16.3041 35.8672 15.3138 32.7939 15.3138 29.6341C15.3138 21.3338 22.0656 14.5898 30.3659 14.5898C38.6662 14.5898 45.4181 21.3338 45.4181 29.6341C45.4181 37.9345 38.6662 44.6863 30.3659 44.6863Z" fill="#010101"/>
<path fill-rule="evenodd" clip-rule="evenodd" d="M37.377 32.3616C36.6146 31.9057 35.6164 31.3948 34.7203 31.7642C34.0286 32.0472 33.5884 33.1241 33.1404 33.6743C32.9125 33.9572 32.6374 34.0044 32.2837 33.8629C29.6898 32.8332 27.7091 31.104 26.2785 28.7224C26.0349 28.3529 26.082 28.0621 26.3728 27.7163C26.8051 27.2054 27.3475 26.6316 27.4654 25.9477C27.5833 25.2639 27.261 24.4622 26.9781 23.8491C26.6165 23.0709 26.2078 21.9548 25.4296 21.5146C24.7144 21.1059 23.7633 21.3338 23.1266 21.8605C22.0262 22.7565 21.4917 24.1635 21.5074 25.5626C21.5153 25.9635 21.5624 26.3565 21.6568 26.7416C21.8768 27.6613 22.3013 28.5259 22.7808 29.3433C23.1423 29.9564 23.5353 30.5538 23.9598 31.1354C25.3432 33.0297 27.0724 34.6411 29.0689 35.8751C30.0671 36.4961 31.1361 37.007 32.2522 37.3921C33.502 37.8008 34.6103 38.2331 35.9622 37.9816C37.3692 37.7144 38.7604 36.8419 39.3263 35.4821C39.4914 35.0812 39.5779 34.6332 39.4836 34.2088C39.2792 33.3127 38.0844 32.7861 37.377 32.3616Z" fill="#010101"/>
</svg>
